# Blender v2.76 (sub 0) OBJ File: ''
# www.blender.org
mtllib 156.mtl
o Cube_Cube.001
v 0.452536 0.034620 -0.058975
v 0.443503 -0.100389 -0.045480
v 0.391614 -0.217423 -0.126687
v 0.419128 -0.187331 0.041712
v 0.379891 -0.266035 0.037910
v 0.329099 -0.329099 -0.035885
v 0.419128 -0.041713 -0.187330
v 0.275316 -0.328325 -0.188128
v 0.379891 -0.037909 -0.266035
v 0.328325 -0.188130 -0.275316
v 0.329101 0.035886 -0.329101
v 0.296850 -0.073618 -0.352897
v 0.235668 -0.283564 -0.283564
v 0.443503 -0.045480 0.100389
v 0.391615 -0.126688 0.217424
v 0.419128 0.041713 0.187330
v 0.379891 0.037909 0.266035
v 0.329101 -0.035886 0.329101
v 0.275316 -0.188128 0.328329
v 0.346618 -0.239520 0.198258
v 0.296849 -0.352898 0.073618
v 0.275316 -0.328325 0.188128
v 0.235685 -0.283548 0.283548
v 0.443503 0.100389 0.045480
v 0.391614 0.217423 0.126687
v 0.419128 0.187331 -0.041712
v 0.379891 0.266035 -0.037910
v 0.329099 0.329099 0.035885
v 0.275316 0.328325 0.188128
v 0.328325 0.188130 0.275316
v 0.296850 0.073618 0.352897
v 0.235668 0.283564 0.283564
v 0.391615 0.126688 -0.217424
v 0.275316 0.188128 -0.328329
v 0.328325 0.275316 -0.188130
v 0.296849 0.352898 -0.073618
v 0.235685 0.283548 -0.283548
v 0.047370 -0.000000 0.453412
v 0.045480 -0.100390 0.443502
v 0.126686 -0.217423 0.391613
v -0.041714 -0.187330 0.419128
v 0.000000 -0.301062 0.356730
v 0.113738 -0.319940 0.319944
v 0.187328 -0.041714 0.419128
v 0.266034 -0.037909 0.379893
v -0.100389 -0.045480 0.443503
v -0.174690 -0.129821 0.407256
v -0.296850 -0.073618 0.352897
v -0.266034 0.037909 0.379893
v -0.239542 -0.198244 0.346624
v -0.328325 -0.188130 0.275316
v -0.123477 -0.252246 0.370497
v -0.113739 -0.319943 0.319938
v -0.235668 -0.283564 0.283564
v -0.154055 0.050392 0.431914
v 0.045481 0.100390 0.443503
v -0.126686 0.217423 0.391613
v 0.041714 0.187330 0.419128
v -0.000000 0.301062 0.356730
v -0.113738 0.319940 0.319944
v -0.275316 0.188128 0.328329
v -0.235685 0.283548 0.283548
v -0.329101 0.035886 0.329101
v 0.174690 0.129821 0.407256
v 0.239542 0.198244 0.346624
v 0.123477 0.252246 0.370497
v 0.113739 0.319943 0.319938
v -0.452536 0.058976 -0.034620
v -0.443503 0.045480 0.100389
v -0.443503 -0.100389 0.045480
v -0.407256 -0.174692 0.129821
v -0.419128 -0.187331 -0.041712
v -0.352777 -0.288565 0.107574
v -0.379891 -0.266035 -0.037910
v -0.419128 -0.041713 0.187330
v -0.275316 -0.328325 0.188128
v -0.379891 -0.037909 0.266035
v -0.443503 -0.045480 -0.100389
v -0.391615 -0.126688 -0.217424
v -0.419128 0.041713 -0.187330
v -0.379891 0.037909 -0.266035
v -0.329101 -0.035886 -0.329101
v -0.275316 -0.188128 -0.328329
v -0.346618 -0.239520 -0.198258
v -0.329099 -0.329099 -0.035885
v -0.275316 -0.328325 -0.188128
v -0.235685 -0.283548 -0.283548
v -0.391614 0.217423 -0.126687
v -0.419128 0.187331 0.041712
v -0.379891 0.266035 0.037910
v -0.329099 0.329099 -0.035885
v -0.275316 0.328325 -0.188128
v -0.328325 0.188130 -0.275316
v -0.296850 0.073618 -0.352897
v -0.235668 0.283564 -0.283564
v -0.391615 0.126688 0.217424
v -0.346618 0.239520 0.198258
v -0.296849 0.352898 0.073618
v -0.275316 0.328325 0.188128
v -0.058975 -0.034620 -0.452536
v 0.045481 -0.100390 -0.443503
v -0.126686 -0.217423 -0.391613
v 0.041714 -0.187330 -0.419128
v -0.000000 -0.301062 -0.356730
v -0.113738 -0.319940 -0.319944
v -0.187328 -0.041714 -0.419128
v -0.266034 -0.037909 -0.379893
v 0.100390 0.045481 -0.443503
v 0.174690 -0.129821 -0.407256
v 0.187328 0.041714 -0.419128
v 0.266034 0.037909 -0.379893
v 0.239542 -0.198244 -0.346624
v 0.123477 -0.252246 -0.370497
v 0.113739 -0.319943 -0.319938
v -0.045481 0.100390 -0.443503
v 0.126686 0.217423 -0.391613
v -0.041714 0.187330 -0.419128
v 0.000000 0.301062 -0.356730
v 0.113738 0.319940 -0.319944
v -0.174690 0.129821 -0.407256
v -0.239542 0.198244 -0.346624
v -0.123477 0.252246 -0.370497
v -0.113739 0.319943 -0.319938
v -0.058976 0.452536 0.034620
v -0.045480 0.443502 -0.100388
v 0.100389 0.443503 -0.045480
v 0.174693 0.407256 -0.129821
v 0.187330 0.419127 0.041712
v 0.266034 0.379892 0.037910
v 0.029384 0.406466 -0.224125
v 0.239523 0.346629 -0.198252
v 0.123466 0.370500 -0.252243
v 0.045480 0.443502 0.100388
v 0.126688 0.391615 0.217425
v -0.029384 0.406466 0.224125
v -0.174693 0.407256 0.129821
v -0.187330 0.419127 -0.041712
v -0.266034 0.379892 -0.037910
v -0.123466 0.370500 0.252243
v -0.126688 0.391615 -0.217425
v 0.034620 -0.452536 -0.058975
v -0.100389 -0.443503 -0.045480
v -0.209911 -0.397529 -0.117699
v -0.187330 -0.419127 0.041712
v -0.266034 -0.379892 0.037910
v -0.029384 -0.406466 -0.224125
v -0.123466 -0.370500 -0.252243
v -0.045480 -0.443502 0.100388
v -0.126688 -0.391615 0.217425
v 0.029384 -0.406466 0.224125
v 0.100389 -0.443503 0.045480
v 0.174693 -0.407256 0.129821
v 0.187330 -0.419127 -0.041712
v 0.266034 -0.379892 -0.037910
v 0.123466 -0.370500 0.252243
v 0.126688 -0.391615 -0.217425
vn -0.830000 0.548200 0.102800
vn -0.936700 0.235900 0.258600
vn -0.857200 0.267100 0.440300
vn -0.732800 0.537000 0.417900
vn -0.735300 0.070100 0.674100
vn -0.748700 0.218300 0.626000
vn -0.997600 0.064300 -0.024200
vn -0.830000 0.102800 -0.548200
vn -0.936700 0.258500 -0.235900
vn -0.861200 0.441500 -0.251700
vn -0.735100 0.387600 -0.556100
vn -0.735300 0.674100 -0.070000
vn -0.749000 0.604800 -0.270600
vn -0.631500 0.567300 -0.528500
vn -0.997200 -0.026200 -0.069700
vn -0.830000 -0.548200 -0.102800
vn -0.936700 -0.235900 -0.258600
vn -0.857200 -0.267100 -0.440300
vn -0.732800 -0.537000 -0.417900
vn -0.735300 -0.070100 -0.674100
vn -0.748700 -0.218300 -0.626000
vn -0.830000 -0.102800 0.548200
vn -0.945400 -0.232600 0.228300
vn -0.857200 -0.440300 0.267100
vn -0.732800 -0.417900 0.537000
vn -0.735300 -0.674100 0.070000
vn -0.748700 -0.626000 0.218300
vn -0.162300 0.579100 -0.799000
vn -0.258600 0.235900 -0.936700
vn -0.440200 0.267100 -0.857200
vn -0.419100 0.522500 -0.742500
vn -0.616000 0.221400 -0.756000
vn 0.036700 0.097500 -0.994600
vn 0.433400 0.073300 -0.898200
vn 0.189600 0.241900 -0.951600
vn 0.615300 0.319200 -0.720800
vn 0.105400 0.507800 -0.855000
vn 0.360600 0.403400 -0.841000
vn 0.387200 0.586800 -0.711100
vn 0.088400 -0.070600 -0.993600
vn 0.118700 -0.251200 -0.960600
vn 0.162300 -0.579100 -0.799000
vn 0.430300 -0.269200 -0.861600
vn 0.419100 -0.522500 -0.742500
vn 0.616000 -0.221400 -0.756000
vn -0.247600 -0.099800 -0.963700
vn -0.440600 -0.094300 -0.892700
vn -0.201800 -0.272500 -0.940700
vn -0.615300 -0.319200 -0.720800
vn -0.105400 -0.507800 -0.855000
vn -0.360600 -0.403400 -0.841000
vn -0.387200 -0.586800 -0.711100
vn 0.997600 0.024200 -0.064300
vn 0.890700 0.444600 -0.094400
vn 0.951600 0.189600 -0.241900
vn 0.857200 0.267100 -0.440300
vn 0.723700 0.540500 -0.429100
vn 0.735300 0.070100 -0.674100
vn 0.748700 0.218300 -0.626000
vn 0.997200 0.069700 0.026200
vn 0.830000 0.102800 0.548200
vn 0.936700 0.258500 0.235900
vn 0.861200 0.441500 0.251700
vn 0.735100 0.387600 0.556100
vn 0.746400 0.609700 0.266800
vn 0.631500 0.567300 0.528500
vn 0.830000 -0.548200 0.102800
vn 0.945400 -0.228300 0.232600
vn 0.857200 -0.267100 0.440300
vn 0.732800 -0.537000 0.417900
vn 0.735300 -0.070100 0.674100
vn 0.748700 -0.218300 0.626000
vn 0.830000 -0.102800 -0.548200
vn 0.936700 -0.258500 -0.235900
vn 0.861200 -0.441500 -0.251700
vn 0.735100 -0.387600 -0.556100
vn 0.735300 -0.674100 -0.070000
vn 0.749000 -0.604800 -0.270600
vn 0.631500 -0.567300 -0.528500
vn 0.095500 0.282700 0.954400
vn 0.162300 0.579100 0.799000
vn 0.233400 0.228500 0.945100
vn 0.440200 0.267100 0.857200
vn 0.419100 0.522500 0.742500
vn 0.616000 0.221400 0.756000
vn -0.249100 0.093800 0.963900
vn -0.440600 0.094300 0.892700
vn -0.201800 0.272500 0.940700
vn -0.615300 0.319200 0.720800
vn -0.105400 0.507800 0.855000
vn -0.360600 0.403400 0.841000
vn -0.387200 0.586800 0.711100
vn -0.102700 -0.273000 0.956500
vn -0.162300 -0.579100 0.799000
vn -0.271700 -0.239700 0.932000
vn -0.440200 -0.267100 0.857200
vn -0.419100 -0.522500 0.742500
vn -0.616000 -0.221400 0.756000
vn 0.250100 -0.089500 0.964100
vn 0.440600 -0.094300 0.892700
vn 0.201800 -0.272500 0.940700
vn 0.615300 -0.319200 0.720800
vn 0.105400 -0.507800 0.855000
vn 0.360600 -0.403400 0.841000
vn 0.387200 -0.586800 0.711100
vn -0.024200 -0.997600 0.064300
vn -0.440600 -0.892700 0.094200
vn -0.165400 -0.950600 0.262800
vn -0.615200 -0.720800 0.319200
vn -0.360600 -0.841000 0.403400
vn -0.075800 -0.772300 0.630700
vn -0.387300 -0.711100 0.586700
vn -0.069700 -0.997200 -0.026200
vn -0.101800 -0.809200 -0.578600
vn -0.258500 -0.936800 -0.235900
vn -0.440300 -0.857200 -0.267100
vn -0.419200 -0.742500 -0.522400
vn -0.616000 -0.756000 -0.221500
vn 0.440600 -0.892700 -0.094200
vn 0.161500 -0.952900 -0.256900
vn 0.401500 -0.817200 -0.413400
vn 0.075800 -0.772300 -0.630700
vn 0.387300 -0.711100 -0.586700
vn 0.101800 -0.809200 0.578600
vn 0.258500 -0.936800 0.235900
vn 0.440300 -0.857200 0.267100
vn 0.419200 -0.742500 0.522400
vn 0.616000 -0.756000 0.221500
vn 0.547700 0.830300 0.103400
vn 0.210200 0.937300 0.277900
vn 0.403700 0.811500 0.422400
vn 0.075800 0.772300 0.630700
vn 0.387300 0.711100 0.586700
vn 0.064300 0.997600 -0.024200
vn 0.101800 0.809200 -0.578600
vn 0.258500 0.936800 -0.235900
vn 0.440300 0.857200 -0.267100
vn 0.419200 0.742500 -0.522400
vn 0.686700 0.721300 -0.090400
vn 0.617400 0.755000 -0.221000
vn -0.026200 0.997200 -0.069700
vn -0.440600 0.892700 -0.094200
vn -0.165400 0.950600 -0.262800
vn -0.401500 0.817200 -0.413400
vn -0.075800 0.772300 -0.630700
vn -0.387300 0.711100 -0.586700
vn -0.101800 0.809200 0.578600
vn -0.232600 0.945400 0.228300
vn -0.440300 0.857200 0.267100
vn -0.419200 0.742500 0.522400
vn -0.616000 0.756000 0.221500
vn -0.932000 0.351100 0.089500
vn -0.894200 0.442600 0.067000
vn -0.975400 0.085600 0.203000
vn -0.735000 0.625100 0.262800
vn -0.861900 0.280700 0.422300
vn -0.631500 0.567400 0.528500
vn -0.932000 0.089500 -0.351100
vn -0.894200 0.067000 -0.442600
vn -0.977200 0.198900 -0.074900
vn -0.735000 0.262800 -0.625100
vn -0.876400 0.396000 -0.273900
vn -0.739200 0.622800 -0.256400
vn -0.639400 0.527900 -0.559100
vn -0.932000 -0.351100 -0.089500
vn -0.894200 -0.442600 -0.067000
vn -0.977200 -0.074900 -0.198900
vn -0.735000 -0.625100 -0.262800
vn -0.861900 -0.280700 -0.422300
vn -0.631500 -0.567400 -0.528500
vn -0.946800 -0.100000 0.305900
vn -0.894200 -0.067000 0.442600
vn -0.974200 -0.219200 0.053800
vn -0.735000 -0.262800 0.625100
vn -0.861900 -0.422300 0.280700
vn -0.631400 -0.528500 0.567400
vn -0.089500 0.351100 -0.932000
vn -0.061900 0.462600 -0.884400
vn -0.208500 0.100000 -0.972900
vn -0.422300 0.280700 -0.861900
vn -0.386000 0.560800 -0.732500
vn 0.355700 0.086600 -0.930600
vn 0.409200 0.106300 -0.906300
vn 0.626900 0.015300 -0.779000
vn 0.074900 0.198900 -0.977200
vn 0.491900 0.267900 -0.828400
vn 0.240100 0.369900 -0.897500
vn 0.152200 0.605400 -0.781300
vn 0.407300 0.554700 -0.725500
vn 0.575400 0.502900 -0.645000
vn 0.081800 -0.096400 -0.992000
vn 0.109400 -0.263900 -0.958300
vn 0.061900 -0.462600 -0.884400
vn 0.422100 -0.277400 -0.863000
vn 0.386000 -0.560800 -0.732500
vn -0.261100 -0.085800 -0.961500
vn -0.440500 -0.094400 -0.892800
vn -0.626900 -0.015300 -0.779000
vn -0.491900 -0.267900 -0.828400
vn -0.240100 -0.369900 -0.897500
vn -0.152200 -0.605400 -0.781300
vn -0.407300 -0.554700 -0.725500
vn -0.575400 -0.502900 -0.645000
vn 0.931700 0.351900 -0.090400
vn 0.892500 0.440200 -0.098200
vn 0.778700 0.625600 -0.048200
vn 0.977200 0.074900 -0.198900
vn 0.857200 0.267000 -0.440400
vn 0.798300 0.458300 -0.390800
vn 0.631500 0.567400 -0.528500
vn 0.932000 0.089500 0.351100
vn 0.894200 0.067000 0.442600
vn 0.977200 0.198900 0.074900
vn 0.735000 0.262800 0.625100
vn 0.876400 0.396000 0.273900
vn 0.739200 0.622800 0.256400
vn 0.639400 0.527900 0.559100
vn 0.946800 -0.305900 0.100000
vn 0.894200 -0.442600 0.067000
vn 0.974200 -0.053800 0.219200
vn 0.735000 -0.625100 0.262800
vn 0.861900 -0.280700 0.422300
vn 0.631500 -0.567400 0.528500
vn 0.932000 -0.089500 -0.351100
vn 0.894200 -0.067000 -0.442600
vn 0.975400 -0.203000 -0.085600
vn 0.735000 -0.262800 -0.625100
vn 0.876400 -0.396000 -0.273900
vn 0.739200 -0.622800 -0.256400
vn 0.639400 -0.527900 -0.559100
vn 0.109400 0.263900 0.958300
vn 0.061900 0.462600 0.884400
vn 0.422300 0.280700 0.861900
vn 0.386000 0.560800 0.732500
vn -0.069700 0.026200 0.997200
vn -0.265500 0.086000 0.960300
vn -0.440500 0.094400 0.892800
vn -0.626900 0.015300 0.779000
vn -0.491900 0.267900 0.828400
vn -0.240100 0.369900 0.897500
vn -0.152200 0.605400 0.781300
vn -0.407300 0.554700 0.725500
vn -0.575400 0.502900 0.645000
vn -0.024200 -0.064300 0.997600
vn -0.109400 -0.263900 0.958300
vn -0.061900 -0.462600 0.884400
vn -0.422300 -0.280700 0.861900
vn -0.386000 -0.560800 0.732500
vn 0.255400 -0.085500 0.963100
vn 0.440500 -0.094400 0.892800
vn 0.626900 -0.015300 0.779000
vn 0.491900 -0.267900 0.828400
vn 0.240100 -0.369900 0.897500
vn 0.152200 -0.605400 0.781300
vn 0.407300 -0.554700 0.725500
vn 0.575400 -0.502900 0.645000
vn -0.351900 -0.931700 0.090400
vn -0.440500 -0.892800 0.094400
vn -0.626900 -0.779000 0.015300
vn -0.088800 -0.967700 0.235900
vn -0.491900 -0.828400 0.267900
vn -0.234000 -0.899900 0.368100
vn -0.120100 -0.787100 0.605100
vn -0.407300 -0.725400 0.554800
vn -0.575300 -0.645000 0.502900
vn -0.103600 -0.933900 -0.342200
vn -0.067000 -0.788200 -0.611700
vn -0.198900 -0.977200 -0.074900
vn -0.422300 -0.861900 -0.280700
vn -0.385900 -0.732500 -0.560900
vn 0.299500 -0.950000 -0.087800
vn 0.440500 -0.892800 -0.094400
vn 0.626900 -0.779000 -0.015300
vn 0.071400 -0.966600 -0.246100
vn 0.492500 -0.827400 -0.270200
vn 0.234000 -0.899900 -0.368100
vn 0.120100 -0.787100 -0.605100
vn 0.425900 -0.738100 -0.523300
vn 0.103600 -0.933900 0.342200
vn 0.067000 -0.788200 0.611700
vn 0.203000 -0.975400 0.085600
vn 0.422300 -0.861900 0.280700
vn 0.385900 -0.732500 0.560900
vn 0.341400 0.936600 0.078500
vn 0.443100 0.894500 0.058400
vn 0.088300 0.967800 0.235700
vn 0.592400 0.776900 0.213200
vn 0.245400 0.907800 0.340100
vn 0.120100 0.787100 0.605100
vn 0.425900 0.738100 0.523300
vn 0.103600 0.933900 -0.342200
vn 0.067000 0.788200 -0.611700
vn 0.198900 0.977200 -0.074900
vn 0.422300 0.861900 -0.280700
vn 0.385900 0.732500 -0.560900
vn -0.351900 0.931700 -0.090400
vn -0.440500 0.892800 -0.094400
vn -0.626900 0.779000 -0.015300
vn -0.088800 0.967700 -0.235900
vn -0.492500 0.827300 -0.270200
vn -0.234000 0.899900 -0.368100
vn -0.120100 0.787100 -0.605100
vn -0.425900 0.738100 -0.523300
vn -0.103200 0.947000 0.304200
vn -0.067000 0.788200 0.611700
vn -0.219200 0.974200 0.053800
vn -0.422300 0.861900 0.280700
vn -0.385900 0.732500 0.560900
usemtl None
s 1
f 5//1 3//1 6//1
f 2//2 7//2 3//2
f 7//3 9//3 10//3
f 3//4 10//4 8//4
f 9//5 11//5 12//5
f 9//6 12//6 10//6
f 1//7 2//7 14//7
f 17//8 15//8 18//8
f 14//9 4//9 15//9
f 4//10 5//10 20//10
f 15//11 20//11 19//11
f 5//12 6//12 21//12
f 5//13 21//13 22//13
f 20//14 22//14 23//14
f 1//15 14//15 24//15
f 27//16 25//16 28//16
f 24//17 16//17 25//17
f 16//18 17//18 30//18
f 25//19 30//19 29//19
f 17//20 18//20 31//20
f 17//21 31//21 30//21
f 9//22 33//22 11//22
f 1//23 26//23 33//23
f 26//24 27//24 35//24
f 33//25 35//25 34//25
f 27//26 28//26 36//26
f 27//27 36//27 35//27
f 42//28 40//28 43//28
f 39//29 44//29 40//29
f 44//30 45//30 19//30
f 40//31 19//31 23//31
f 45//32 18//32 19//32
f 38//33 39//33 46//33
f 55//34 47//34 48//34
f 46//35 41//35 47//35
f 48//36 50//36 51//36
f 41//37 42//37 52//37
f 47//38 52//38 50//38
f 52//39 53//39 54//39
f 38//40 46//40 55//40
f 56//41 55//41 57//41
f 59//42 57//42 60//42
f 55//43 49//43 61//43
f 57//44 61//44 62//44
f 49//45 63//45 61//45
f 38//46 56//46 64//46
f 44//47 64//47 31//47
f 56//48 58//48 64//48
f 31//49 65//49 30//49
f 58//50 59//50 66//50
f 64//51 66//51 65//51
f 66//52 67//52 32//52
f 68//53 69//53 70//53
f 72//54 71//54 73//54
f 70//55 75//55 71//55
f 75//56 77//56 51//56
f 73//57 51//57 76//57
f 77//58 63//58 48//58
f 77//59 48//59 51//59
f 68//60 70//60 78//60
f 81//61 79//61 82//61
f 78//62 72//62 79//62
f 72//63 74//63 84//63
f 79//64 84//64 83//64
f 74//65 85//65 86//65
f 84//66 86//66 87//66
f 90//67 88//67 91//67
f 68//68 80//68 88//68
f 80//69 81//69 93//69
f 88//70 93//70 92//70
f 81//71 82//71 94//71
f 81//72 94//72 93//72
f 77//73 96//73 63//73
f 69//74 89//74 96//74
f 89//75 90//75 97//75
f 96//76 97//76 61//76
f 90//77 91//77 98//77
f 90//78 98//78 99//78
f 97//79 99//79 62//79
f 101//80 100//80 102//80
f 104//81 102//81 105//81
f 100//82 106//82 102//82
f 106//83 107//83 83//83
f 102//84 83//84 87//84
f 107//85 82//85 83//85
f 108//86 101//86 109//86
f 110//87 109//87 12//87
f 101//88 103//88 109//88
f 12//89 112//89 10//89
f 103//90 104//90 113//90
f 109//91 113//91 112//91
f 113//92 114//92 13//92
f 115//93 108//93 116//93
f 118//94 116//94 119//94
f 108//95 110//95 116//95
f 110//96 111//96 34//96
f 116//97 34//97 37//97
f 111//98 11//98 34//98
f 100//99 115//99 120//99
f 106//100 120//100 94//100
f 115//101 117//101 120//101
f 94//102 121//102 93//102
f 117//103 118//103 122//103
f 120//104 122//104 121//104
f 122//105 123//105 95//105
f 124//106 125//106 126//106
f 128//107 127//107 36//107
f 126//108 130//108 127//108
f 36//109 131//109 35//109
f 127//110 132//110 131//110
f 130//111 118//111 119//111
f 132//112 119//112 37//112
f 124//113 126//113 133//113
f 135//114 134//114 67//114
f 133//115 128//115 134//115
f 128//116 129//116 29//116
f 134//117 29//117 32//117
f 129//118 28//118 29//118
f 137//119 136//119 98//119
f 124//120 135//120 136//120
f 136//121 139//121 99//121
f 135//122 59//122 60//122
f 139//123 60//123 62//123
f 130//124 140//124 123//124
f 125//125 137//125 140//125
f 137//126 138//126 92//126
f 140//127 92//127 95//127
f 138//128 91//128 92//128
f 145//129 143//129 85//129
f 142//130 146//130 143//130
f 143//131 147//131 86//131
f 146//132 104//132 105//132
f 147//133 105//133 87//133
f 141//134 142//134 148//134
f 150//135 149//135 53//135
f 148//136 144//136 149//136
f 144//137 145//137 76//137
f 149//138 76//138 54//138
f 145//139 85//139 73//139
f 145//140 73//140 76//140
f 141//141 148//141 151//141
f 153//142 152//142 21//142
f 151//143 150//143 152//143
f 152//144 155//144 22//144
f 150//145 42//145 43//145
f 155//146 43//146 23//146
f 146//147 156//147 114//147
f 141//148 153//148 156//148
f 153//149 154//149 8//149
f 156//150 8//150 13//150
f 154//151 6//151 8//151
f 4//152 2//152 3//152
f 5//153 4//153 3//153
f 2//154 1//154 7//154
f 6//155 3//155 8//155
f 3//156 7//156 10//156
f 8//157 10//157 13//157
f 16//158 14//158 15//158
f 17//159 16//159 15//159
f 14//160 2//160 4//160
f 18//161 15//161 19//161
f 15//162 4//162 20//162
f 20//163 5//163 22//163
f 19//164 20//164 23//164
f 26//165 24//165 25//165
f 27//166 26//166 25//166
f 24//167 14//167 16//167
f 28//168 25//168 29//168
f 25//169 16//169 30//169
f 29//170 30//170 32//170
f 7//171 1//171 33//171
f 9//172 7//172 33//172
f 1//173 24//173 26//173
f 11//174 33//174 34//174
f 33//175 26//175 35//175
f 34//176 35//176 37//176
f 41//177 39//177 40//177
f 42//178 41//178 40//178
f 39//179 38//179 44//179
f 40//180 44//180 19//180
f 43//181 40//181 23//181
f 55//182 46//182 47//182
f 49//183 55//183 48//183
f 63//184 49//184 48//184
f 46//185 39//185 41//185
f 48//186 47//186 50//186
f 47//187 41//187 52//187
f 52//188 42//188 53//188
f 50//189 52//189 54//189
f 51//190 50//190 54//190
f 56//191 38//191 55//191
f 58//192 56//192 57//192
f 59//193 58//193 57//193
f 57//194 55//194 61//194
f 60//195 57//195 62//195
f 44//196 38//196 64//196
f 45//197 44//197 31//197
f 18//198 45//198 31//198
f 31//199 64//199 65//199
f 64//200 58//200 66//200
f 66//201 59//201 67//201
f 65//202 66//202 32//202
f 30//203 65//203 32//203
f 72//204 70//204 71//204
f 74//205 72//205 73//205
f 85//206 74//206 73//206
f 70//207 69//207 75//207
f 71//208 75//208 51//208
f 73//209 71//209 51//209
f 76//210 51//210 54//210
f 80//211 78//211 79//211
f 81//212 80//212 79//212
f 78//213 70//213 72//213
f 82//214 79//214 83//214
f 79//215 72//215 84//215
f 84//216 74//216 86//216
f 83//217 84//217 87//217
f 89//218 68//218 88//218
f 90//219 89//219 88//219
f 68//220 78//220 80//220
f 91//221 88//221 92//221
f 88//222 80//222 93//222
f 92//223 93//223 95//223
f 75//224 69//224 96//224
f 77//225 75//225 96//225
f 69//226 68//226 89//226
f 63//227 96//227 61//227
f 96//228 89//228 97//228
f 97//229 90//229 99//229
f 61//230 97//230 62//230
f 103//231 101//231 102//231
f 104//232 103//232 102//232
f 102//233 106//233 83//233
f 105//234 102//234 87//234
f 108//235 100//235 101//235
f 110//236 108//236 109//236
f 111//237 110//237 12//237
f 11//238 111//238 12//238
f 12//239 109//239 112//239
f 109//240 103//240 113//240
f 113//241 104//241 114//241
f 112//242 113//242 13//242
f 10//243 112//243 13//243
f 115//244 100//244 108//244
f 117//245 115//245 116//245
f 118//246 117//246 116//246
f 116//247 110//247 34//247
f 119//248 116//248 37//248
f 106//249 100//249 120//249
f 107//250 106//250 94//250
f 82//251 107//251 94//251
f 94//252 120//252 121//252
f 120//253 117//253 122//253
f 122//254 118//254 123//254
f 121//255 122//255 95//255
f 93//256 121//256 95//256
f 128//257 126//257 127//257
f 129//258 128//258 36//258
f 28//259 129//259 36//259
f 126//260 125//260 130//260
f 36//261 127//261 131//261
f 127//262 130//262 132//262
f 132//263 130//263 119//263
f 131//264 132//264 37//264
f 35//265 131//265 37//265
f 135//266 133//266 134//266
f 59//267 135//267 67//267
f 133//268 126//268 128//268
f 134//269 128//269 29//269
f 67//270 134//270 32//270
f 137//271 124//271 136//271
f 138//272 137//272 98//272
f 91//273 138//273 98//273
f 124//274 133//274 135//274
f 98//275 136//275 99//275
f 136//276 135//276 139//276
f 139//277 135//277 60//277
f 99//278 139//278 62//278
f 130//279 125//279 140//279
f 118//280 130//280 123//280
f 125//281 124//281 137//281
f 140//282 137//282 92//282
f 123//283 140//283 95//283
f 144//284 142//284 143//284
f 145//285 144//285 143//285
f 142//286 141//286 146//286
f 85//287 143//287 86//287
f 143//288 146//288 147//288
f 147//289 146//289 105//289
f 86//290 147//290 87//290
f 150//291 148//291 149//291
f 42//292 150//292 53//292
f 148//293 142//293 144//293
f 149//294 144//294 76//294
f 53//295 149//295 54//295
f 153//296 151//296 152//296
f 154//297 153//297 21//297
f 6//298 154//298 21//298
f 151//299 148//299 150//299
f 21//300 152//300 22//300
f 152//301 150//301 155//301
f 155//302 150//302 43//302
f 22//303 155//303 23//303
f 146//304 141//304 156//304
f 104//305 146//305 114//305
f 141//306 151//306 153//306
f 156//307 153//307 8//307
f 114//308 156//308 13//308
