{
    "asset" : {
        "generator" : "Khronos glTF Blender I/O v1.8.19",
        "version" : "2.0"
    },
    "scene" : 0,
    "scenes" : [
        {
            "name" : "Scene",
            "nodes" : [
                0,
                1,
                2
            ]
        }
    ],
    "nodes" : [
        {
            "mesh" : 0,
            "name" : "Back_LP",
            "rotation" : [
                0.7071068286895752,
                0,
                0,
                0.7071068286895752
            ]
        },
        {
            "mesh" : 1,
            "name" : "Sides_LP",
            "rotation" : [
                0.7071068286895752,
                0,
                0,
                0.7071068286895752
            ]
        },
        {
            "mesh" : 2,
            "name" : "Seat_LP",
            "rotation" : [
                0.7071068286895752,
                0,
                0,
                0.7071068286895752
            ]
        }
    ],
    "materials" : [
        {
            "doubleSided" : true,
            "name" : "M_Armchair_Cushions.001",
            "pbrMetallicRoughness" : {
                "baseColorTexture" : {
                    "index" : 0
                },
                "metallicFactor" : 0
            }
        },
        {
            "doubleSided" : true,
            "name" : "M_Armchair_Legs.001",
            "pbrMetallicRoughness" : {
                "baseColorTexture" : {
                    "index" : 1
                },
                "metallicFactor" : 0
            }
        }
    ],
    "meshes" : [
        {
            "name" : "Back_LP.001",
            "primitives" : [
                {
                    "attributes" : {
                        "POSITION" : 0,
                        "NORMAL" : 1,
                        "TANGENT" : 2,
                        "TEXCOORD_0" : 3
                    },
                    "indices" : 4,
                    "material" : 0
                }
            ]
        },
        {
            "name" : "Sides_LP.001",
            "primitives" : [
                {
                    "attributes" : {
                        "POSITION" : 5,
                        "NORMAL" : 6,
                        "TANGENT" : 7,
                        "TEXCOORD_0" : 8
                    },
                    "indices" : 9,
                    "material" : 1
                }
            ]
        },
        {
            "name" : "Seat_LP.001",
            "primitives" : [
                {
                    "attributes" : {
                        "POSITION" : 10,
                        "NORMAL" : 11,
                        "TANGENT" : 12,
                        "TEXCOORD_0" : 13
                    },
                    "indices" : 14,
                    "material" : 0
                }
            ]
        }
    ],
    "textures" : [
        {
            "sampler" : 0,
            "source" : 0
        },
        {
            "sampler" : 0,
            "source" : 1
        }
    ],
    "images" : [
        {
            "mimeType" : "image/jpeg",
            "name" : "armchair_cushions.jpg",
            "uri" : "textures/armchair_cushions.jpg"
        },
        {
            "mimeType" : "image/jpeg",
            "name" : "armchair_legs.jpg",
            "uri" : "textures/armchair_legs.jpg"
        }
    ],
    "accessors" : [
        {
            "bufferView" : 0,
            "componentType" : 5126,
            "count" : 4454,
            "max" : [
                -19.67605209350586,
                48.18033981323242,
                -39.06212615966797
            ],
            "min" : [
                -50.23530578613281,
                -47.392398834228516,
                -85.19181823730469
            ],
            "type" : "VEC3"
        },
        {
            "bufferView" : 1,
            "componentType" : 5126,
            "count" : 4454,
            "type" : "VEC3"
        },
        {
            "bufferView" : 2,
            "componentType" : 5126,
            "count" : 4454,
            "type" : "VEC4"
        },
        {
            "bufferView" : 3,
            "componentType" : 5126,
            "count" : 4454,
            "type" : "VEC2"
        },
        {
            "bufferView" : 4,
            "componentType" : 5123,
            "count" : 24864,
            "type" : "SCALAR"
        },
        {
            "bufferView" : 5,
            "componentType" : 5126,
            "count" : 1896,
            "max" : [
                54.188385009765625,
                47.29811096191406,
                0.3584839999675751
            ],
            "min" : [
                -56.14237976074219,
                -47.29821014404297,
                -78.77626037597656
            ],
            "type" : "VEC3"
        },
        {
            "bufferView" : 6,
            "componentType" : 5126,
            "count" : 1896,
            "type" : "VEC3"
        },
        {
            "bufferView" : 7,
            "componentType" : 5126,
            "count" : 1896,
            "type" : "VEC4"
        },
        {
            "bufferView" : 8,
            "componentType" : 5126,
            "count" : 1896,
            "type" : "VEC2"
        },
        {
            "bufferView" : 9,
            "componentType" : 5123,
            "count" : 5472,
            "type" : "SCALAR"
        },
        {
            "bufferView" : 10,
            "componentType" : 5126,
            "count" : 4450,
            "max" : [
                55.629764556884766,
                47.781471252441406,
                -24.167911529541016
            ],
            "min" : [
                -30.396217346191406,
                -48.16095733642578,
                -60.54844665527344
            ],
            "type" : "VEC3"
        },
        {
            "bufferView" : 11,
            "componentType" : 5126,
            "count" : 4450,
            "type" : "VEC3"
        },
        {
            "bufferView" : 12,
            "componentType" : 5126,
            "count" : 4450,
            "type" : "VEC4"
        },
        {
            "bufferView" : 13,
            "componentType" : 5126,
            "count" : 4450,
            "type" : "VEC2"
        },
        {
            "bufferView" : 14,
            "componentType" : 5123,
            "count" : 24864,
            "type" : "SCALAR"
        }
    ],
    "bufferViews" : [
        {
            "buffer" : 0,
            "byteLength" : 53448,
            "byteOffset" : 0
        },
        {
            "buffer" : 0,
            "byteLength" : 53448,
            "byteOffset" : 53448
        },
        {
            "buffer" : 0,
            "byteLength" : 71264,
            "byteOffset" : 106896
        },
        {
            "buffer" : 0,
            "byteLength" : 35632,
            "byteOffset" : 178160
        },
        {
            "buffer" : 0,
            "byteLength" : 49728,
            "byteOffset" : 213792
        },
        {
            "buffer" : 0,
            "byteLength" : 22752,
            "byteOffset" : 263520
        },
        {
            "buffer" : 0,
            "byteLength" : 22752,
            "byteOffset" : 286272
        },
        {
            "buffer" : 0,
            "byteLength" : 30336,
            "byteOffset" : 309024
        },
        {
            "buffer" : 0,
            "byteLength" : 15168,
            "byteOffset" : 339360
        },
        {
            "buffer" : 0,
            "byteLength" : 10944,
            "byteOffset" : 354528
        },
        {
            "buffer" : 0,
            "byteLength" : 53400,
            "byteOffset" : 365472
        },
        {
            "buffer" : 0,
            "byteLength" : 53400,
            "byteOffset" : 418872
        },
        {
            "buffer" : 0,
            "byteLength" : 71200,
            "byteOffset" : 472272
        },
        {
            "buffer" : 0,
            "byteLength" : 35600,
            "byteOffset" : 543472
        },
        {
            "buffer" : 0,
            "byteLength" : 49728,
            "byteOffset" : 579072
        }
    ],
    "samplers" : [
        {
            "magFilter" : 9729,
            "minFilter" : 9987
        }
    ],
    "buffers" : [
        {
            "byteLength" : 628800,
            "uri" : "armchair.bin"
        }
    ]
}
